<?xml version="1.0" standalone="no"?>
<!DOCTYPE svg PUBLIC "-//W3C//DTD SVG 20010904//EN"
 "http://www.w3.org/TR/2001/REC-SVG-20010904/DTD/svg10.dtd">
<svg version="1.0" xmlns="http://www.w3.org/2000/svg"
 width="308.000000pt" height="309.000000pt" viewBox="0 0 308.000000 309.000000"
 preserveAspectRatio="xMidYMid meet">

<g transform="translate(0.000000,309.000000) scale(0.100000,-0.100000)"
fill="#000000" stroke="none">
<path d="M1326 3070 c-450 -71 -823 -307 -1072 -681 -111 -166 -189 -360 -231
-574 -27 -136 -24 -435 5 -571 63 -293 195 -549 393 -758 475 -502 1215 -627
1831 -309 407 211 700 601 800 1067 29 136 32 435 5 571 -123 624 -571 1091
-1182 1231 -103 23 -146 27 -305 30 -102 1 -211 -1 -244 -6z m480 -280 c783
-169 1222 -1016 905 -1750 -66 -153 -134 -252 -266 -386 -206 -209 -417 -321
-699 -370 -135 -24 -377 -15 -508 19 -175 46 -329 119 -465 222 -92 69 -251
242 -312 339 -343 551 -225 1259 278 1670 181 148 439 255 676 280 88 9 294
-4 391 -24z"/>
<path d="M1275 2280 c-65 -13 -92 -27 -188 -94 -51 -35 -125 -80 -165 -100
-82 -42 -254 -101 -320 -112 -24 -4 -40 -10 -35 -14 13 -12 199 -48 319 -61
128 -14 321 -6 412 16 79 19 161 58 212 103 l40 34 40 -36 c143 -129 433 -159
828 -85 61 12 112 24 112 28 0 3 -40 16 -88 27 -135 33 -283 99 -407 183 -147
99 -181 113 -271 113 -72 0 -145 -23 -199 -65 -17 -13 -22 -13 -50 9 -60 45
-166 69 -240 54z"/>
<path d="M1495 1879 c-54 -42 -156 -82 -249 -99 -81 -14 -332 -12 -435 4 -58
8 -84 9 -87 2 -47 -134 -68 -422 -40 -556 35 -168 138 -314 281 -398 138 -81
269 -111 510 -119 365 -11 590 53 756 217 82 81 141 195 165 319 21 106 14
336 -13 456 l-18 80 -45 -2 c-341 -15 -408 -15 -490 1 -98 20 -192 60 -242
104 -19 18 -37 32 -39 31 -2 0 -26 -18 -54 -40z"/>
</g>
</svg>
