<svg width="13" height="13" viewBox="0 0 13 13" fill="none" xmlns="http://www.w3.org/2000/svg">
<path d="M6.5 0.59375C3.23828 0.59375 0.59375 3.23828 0.59375 6.5C0.59375 9.76172 3.23828 12.4062 6.5 12.4062C9.76172 12.4062 12.4062 9.76172 12.4062 6.5C12.4062 3.23828 9.76172 0.59375 6.5 0.59375ZM7.73047 9.74805C7.42578 9.86719 7.18359 9.95898 7.00195 10.0215C6.82031 10.084 6.61133 10.1152 6.37109 10.1152C6.00391 10.1152 5.7168 10.0254 5.51172 9.8457C5.30859 9.66797 5.20703 9.43945 5.20703 9.16211C5.20703 9.05469 5.21484 8.94531 5.23047 8.83398C5.24414 8.7207 5.26953 8.5957 5.30273 8.45312L5.68359 7.10938C5.7168 6.98047 5.74609 6.85938 5.76953 6.74414C5.79297 6.62891 5.80273 6.52344 5.80273 6.42773C5.80273 6.25781 5.76758 6.13672 5.69727 6.07031C5.625 6.00195 5.49023 5.96875 5.29102 5.96875C5.19336 5.96875 5.0918 5.98437 4.98828 6.01367C4.88477 6.04492 4.79688 6.07422 4.72266 6.10156L4.82422 5.6875C5.07227 5.58594 5.31055 5.5 5.53906 5.42773C5.76562 5.35547 5.98242 5.31836 6.18359 5.31836C6.54883 5.31836 6.83203 5.4082 7.0293 5.58398C7.22656 5.75977 7.32617 5.99023 7.32617 6.27148C7.32617 6.33008 7.32031 6.43359 7.30664 6.58008C7.29297 6.72656 7.26758 6.86133 7.23047 6.98633L6.85156 8.32617C6.82031 8.43359 6.79297 8.55664 6.76758 8.69336C6.74414 8.83008 6.73242 8.93555 6.73242 9.00586C6.73242 9.18359 6.77148 9.30664 6.85156 9.37109C6.92969 9.43555 7.06836 9.4668 7.26562 9.4668C7.35742 9.4668 7.46094 9.45117 7.57812 9.41992C7.69336 9.38672 7.77734 9.35937 7.83008 9.33398L7.73047 9.74805ZM7.66211 4.30859C7.48633 4.47266 7.27344 4.55469 7.02539 4.55469C6.77734 4.55469 6.5625 4.47266 6.38477 4.30859C6.20703 4.14453 6.11914 3.94531 6.11914 3.71289C6.11914 3.48047 6.20898 3.2793 6.38477 3.11328C6.5625 2.94727 6.77734 2.86523 7.02539 2.86523C7.27344 2.86523 7.48633 2.94727 7.66211 3.11328C7.83984 3.2793 7.92773 3.48047 7.92773 3.71289C7.92773 3.94531 7.83984 4.14453 7.66211 4.30859Z" fill="#828282"/>
</svg>
