<svg width="64" height="64" viewBox="0 0 64 64" fill="none" xmlns="http://www.w3.org/2000/svg"><path d="M33.4001 0.05C36.9001 0 40.3626 0.0375 43.8376 0C44.0501 4.0875 45.5126 8.2375 48.5001 11.125C51.4876 14.0875 55.7001 15.4375 59.8001 15.9V26.6375C55.9501 26.5125 52.0876 25.7125 48.6001 24.05C47.0751 23.3625 45.6626 22.475 44.2751 21.575C44.2626 29.3625 44.3126 37.15 44.2251 44.9125C44.0126 48.6375 42.7876 52.35 40.6126 55.425C37.1251 60.5375 31.0751 63.875 24.8501 63.975C21.0376 64.1875 17.2251 63.15 13.9751 61.2375C8.60009 58.0625 4.81258 52.2375 4.26258 46C4.20008 44.6625 4.17508 43.3375 4.22508 42.0375C4.70008 36.9625 7.21258 32.1125 11.1126 28.8125C15.5251 24.9625 21.7126 23.1375 27.5126 24.2125C27.5626 28.1625 27.4126 32.1125 27.4126 36.0625C24.7626 35.2125 21.6751 35.45 19.3626 37.05C17.6751 38.15 16.3876 39.825 15.7251 41.7125C15.1751 43.0625 15.3376 44.5625 15.3626 46C16.0001 50.375 20.2001 54.05 24.7001 53.6625C27.6751 53.625 30.5376 51.9 32.0876 49.375C32.5876 48.4875 33.1501 47.5875 33.1876 46.5375C33.4501 41.7625 33.3501 37.0125 33.3751 32.25C33.3751 21.4875 33.3251 10.775 33.4001 0.05Z" fill="black"></path></svg>